<svg xmlns="http://www.w3.org/2000/svg" width="244" height="78" fill="none" viewBox="0 0 244 78"><path fill="#fff" fill-rule="evenodd" d="M81.512 40.373V14.791h2.453a3.614 3.614 0 0 1 3.619 3.61v11.375c3.931-3.5 7.274-4.9 11.73-4.99 8.546-.175 15.964 6.158 16.669 14.657.842 10.154-6.56 17.797-16.203 17.797-10.586 0-18.268-6.549-18.268-16.867Zm5.971 2.01c.599 5.285 5.659 9.651 10.994 9.736 6.952.106 11.688-4.414 11.688-11.1s-4.63-11.1-11.386-11.1c-7.221-.016-12.117 5.217-11.296 12.464Zm38.63-16.958v4.557c3.82-4.229 6.082-5.365 10.554-5.365 1.301.001 2.6.105 3.884.312v6.052a15.746 15.746 0 0 0-4.207-.56c-3.237 0-5.955 1.057-7.947 3.055-1.749 1.75-2.268 3.118-2.268 5.867v16.85h-6.295V25.426h6.279ZM142.045 35.6c.323-2.997.906-4.62 2.198-6.179 2.591-3.171 7.254-4.804 13.856-4.804 5.245 0 9.065.814 11.719 2.558 2.205 1.432 3.111 3.557 3.111 7.3v13.663c0 2.997.778 4.054 2.914 3.996.477-.017.952-.059 1.425-.127v4.118a9.369 9.369 0 0 1-3.301.497c-3.947 0-5.759-1.184-6.988-4.62-3.884 3.557-7.9 5.053-13.66 5.053-7.703 0-12.429-3.494-12.429-9.176a8.076 8.076 0 0 1 4.853-7.484c2.331-1 3.756-1.311 10.422-1.998 5.695-.56 6.67-.688 8.286-1.19 1.749-.56 2.528-1.495 2.528-3.055 0-3.309-2.782-4.805-8.61-4.805-5.511 0-8.35 1.09-9.49 3.87a3.755 3.755 0 0 1-3.47 2.368l-3.364.015Zm24.902 5.243a61.784 61.784 0 0 1-12.239 2.247c-5.632.56-7.38 1.623-7.38 4.43 0 3.118 2.59 4.756 7.703 4.756 4.207 0 7.381-1.057 9.649-3.118 1.812-1.686 2.267-2.87 2.267-5.814v-2.5Zm25.517 15.346h-1.621a3.71 3.71 0 0 1-3.359-2.083l-13.58-28.68h3.773a5.548 5.548 0 0 1 5.102 3.26l9.06 20.615 9.362-20.693a5.549 5.549 0 0 1 5.076-3.204h3.428l-13.897 28.734a3.71 3.71 0 0 1-3.344 2.05Zm21.495-13.601c.646 5.93 5.298 9.61 12.234 9.61 3.936 0 6.887-1.169 8.715-3.5a5.624 5.624 0 0 1 4.398-2.114h3.651c-3.179 6.987-8.87 10.423-17.352 10.423-10.597 0-17.739-6.427-17.739-16.037s7.317-16.348 17.871-16.348c7.635 0 13.776 3.43 16.25 9.176 1.102 2.642 1.552 4.99 1.552 8.795l-29.58-.005Zm23.175-4.757c-1.425-5.428-5.632-8.489-11.46-8.489-5.829 0-10.035 3.06-11.524 8.49h22.984Z" clip-rule="evenodd"/><path fill="url(#a)" fill-rule="evenodd" d="m62.038 17.836 1.746-4.28s-2.221-2.378-4.92-5.073c-2.697-2.695-8.41-1.11-8.41-1.11L43.947 0H21.095l-6.507 7.373s-5.713-1.585-8.411 1.11a230.185 230.185 0 0 0-4.92 5.073l1.746 4.28-2.222 6.34s6.535 24.722 7.3 27.741c1.508 5.945 2.54 8.243 6.824 11.255 4.285 3.012 12.061 8.243 13.33 9.036 1.27.792 2.858 2.142 4.286 2.142 1.428 0 3.015-1.35 4.285-2.142 1.27-.793 9.045-6.024 13.33-9.036 4.285-3.012 5.317-5.31 6.824-11.255.766-3.019 7.3-27.74 7.3-27.74l-2.222-6.341Z" clip-rule="evenodd"/><path fill="#fff" fill-rule="evenodd" d="M40.614 13.397c.952 0 8.014-1.347 8.014-1.347s8.37 10.105 8.37 12.265c0 1.786-.72 2.485-1.568 3.308-.178.173-.36.35-.544.545l-6.275 6.656c-.063.066-.132.136-.205.21-.626.628-1.549 1.555-.898 3.093l.134.313c.713 1.667 1.594 3.725.473 5.81-1.193 2.218-3.236 3.699-4.545 3.454-1.31-.245-4.384-1.85-5.515-2.583-1.13-.733-4.715-3.686-4.715-4.815 0-.942 2.578-2.51 3.83-3.27.25-.152.446-.272.56-.348.129-.087.345-.222.61-.387 1.144-.709 3.208-1.99 3.26-2.558.063-.7.039-.905-.882-2.635a36.964 36.964 0 0 0-.662-1.169c-.878-1.508-1.86-3.196-1.642-4.405.245-1.365 2.386-2.148 4.2-2.81.227-.084.449-.165.66-.245.53-.2 1.195-.448 1.89-.708 1.811-.678 3.823-1.43 4.155-1.584.46-.211.341-.413-1.05-.544a84.41 84.41 0 0 1-.676-.07c-1.722-.183-4.899-.52-6.443-.09-.304.085-.644.177-1.001.273-1.735.47-3.861 1.045-4.066 1.376a2.19 2.19 0 0 1-.104.155c-.195.278-.322.459-.106 1.638.064.35.197 1.041.36 1.895.48 2.5 1.227 6.4 1.321 7.277.013.122.028.24.042.355.12.977.2 1.627-.937 1.887l-.297.068c-1.282.294-3.162.725-3.842.725-.68 0-2.56-.431-3.843-.725l-.296-.068c-1.136-.26-1.056-.91-.936-1.887.014-.114.028-.233.041-.355.095-.878.844-4.787 1.323-7.287.163-.85.295-1.536.359-1.885.216-1.18.089-1.36-.107-1.638a2.901 2.901 0 0 1-.104-.155c-.204-.331-2.33-.906-4.065-1.376a108.15 108.15 0 0 1-1.002-.273c-1.544-.43-4.72-.093-6.442.09a84.41 84.41 0 0 1-.676.07c-1.391.131-1.51.333-1.05.544.331.153 2.342.906 4.153 1.583.695.26 1.361.51 1.89.71.213.08.435.16.662.243 1.813.663 3.955 1.446 4.2 2.811.218 1.21-.765 2.897-1.642 4.405-.237.407-.466.801-.662 1.17-.921 1.729-.946 1.934-.882 2.634.052.568 2.115 1.849 3.258 2.558.266.165.483.3.612.387.114.076.31.195.559.347 1.252.761 3.83 2.329 3.83 3.27 0 1.13-3.584 4.083-4.714 4.816-1.131.733-4.206 2.338-5.515 2.583-1.31.245-3.352-1.236-4.545-3.454-1.121-2.085-.24-4.142.473-5.81l.133-.313c.651-1.539-.271-2.465-.898-3.094-.073-.074-.142-.143-.204-.209l-6.275-6.656a17.228 17.228 0 0 0-.544-.545c-.848-.823-1.568-1.522-1.568-3.308 0-2.16 8.37-12.265 8.37-12.265s7.062 1.347 8.014 1.347c.76 0 2.227-.504 3.756-1.03.387-.134.779-.268 1.163-.396 1.905-.634 3.174-.639 3.174-.639s1.27.005 3.174.639c.385.128.776.262 1.163.396 1.53.526 2.997 1.03 3.757 1.03Zm-1.212 35.745c1.493.768 2.552 1.313 2.952 1.563.518.324.202.935-.27 1.268-.472.334-6.813 5.239-7.429 5.78l-.249.224c-.593.534-1.35 1.215-1.886 1.215-.536 0-1.293-.682-1.886-1.216l-.248-.222c-.616-.542-6.958-5.447-7.43-5.78-.472-.334-.787-.945-.27-1.269.401-.25 1.461-.796 2.956-1.565l1.42-.732c2.236-1.156 5.023-2.139 5.458-2.139.435 0 3.222.983 5.459 2.139.508.263.984.508 1.423.733Z" clip-rule="evenodd"/><path fill="url(#b)" fill-rule="evenodd" d="M50.453 7.373 43.947 0H21.094l-6.506 7.373s-5.713-1.585-8.411 1.11c0 0 7.617-.687 10.236 3.567 0 0 7.062 1.347 8.014 1.347.952 0 3.015-.792 4.92-1.427 1.904-.634 3.174-.638 3.174-.638s1.27.004 3.173.638c1.905.635 3.968 1.427 4.92 1.427s8.014-1.347 8.014-1.347c2.619-4.254 10.236-3.567 10.236-3.567-2.697-2.695-8.41-1.11-8.41-1.11Z" clip-rule="evenodd"/><defs><linearGradient id="a" x1=".781" x2="64.26" y1="74.875" y2="74.875" gradientUnits="userSpaceOnUse"><stop stop-color="#F50"/><stop offset=".41" stop-color="#F50"/><stop offset=".582" stop-color="#FF2000"/><stop offset="1" stop-color="#FF2000"/></linearGradient><linearGradient id="b" x1="7.309" x2="58.864" y1="13.348" y2="13.348" gradientUnits="userSpaceOnUse"><stop stop-color="#FF452A"/><stop offset="1" stop-color="#FF2000"/></linearGradient></defs></svg>